<?xml version="1.0" standalone="no"?>
<!DOCTYPE svg PUBLIC "-//W3C//DTD SVG 20010904//EN"
 "http://www.w3.org/TR/2001/REC-SVG-20010904/DTD/svg10.dtd">
<svg version="1.0" xmlns="http://www.w3.org/2000/svg"
 width="618.000000pt" height="618.000000pt" viewBox="0 0 618.000000 618.000000"
 preserveAspectRatio="xMidYMid meet">
<metadata>
Created by potrace 1.14, written by Peter Selinger 2001-2017
</metadata>
<g transform="translate(0.000000,618.000000) scale(0.100000,-0.100000)"
fill="#000000" stroke="none">
<path d="M10 3090 l0 -3080 3080 0 3080 0 0 3080 0 3080 -3080 0 -3080 0 0
-3080z m5637 2557 c2 -3 5 -4581 3 -5114 0 -10 -527 -13 -2560 -13 -2045 0
-2560 2 -2560 12 -2 611 1 5112 4 5116 4 7 5106 5 5113 -1z"/>
<path d="M620 5581 l-25 -7 -2 -2478 c-2 -1814 0 -2483 8 -2493 10 -11 425
-13 2484 -13 1361 0 2480 3 2489 6 15 6 16 234 16 2489 0 2057 -2 2484 -13
2494 -15 12 -4912 15 -4957 2z m4440 -261 c38 -38 27 -76 -40 -143 -33 -33
-60 -62 -60 -64 0 -1 27 -3 60 -3 54 0 60 -2 60 -20 0 -20 -5 -21 -82 -18
-111 4 -113 17 -19 107 77 73 87 100 46 127 -30 20 -63 10 -75 -22 -6 -15 -15
-22 -25 -18 -20 8 -19 16 6 48 27 34 98 37 129 6z m200 0 c26 -26 33 -58 28
-136 -3 -53 -9 -69 -30 -91 -22 -21 -32 -25 -61 -19 -49 9 -70 37 -75 101 -6
72 4 121 30 145 28 26 82 26 108 0z m-206 -321 c20 -15 26 -29 26 -57 0 -32
-8 -44 -66 -99 l-67 -63 67 0 c52 0 66 -3 66 -15 0 -12 -17 -15 -90 -15 l-91
0 15 28 c8 15 35 47 60 70 59 55 79 86 71 111 -12 40 -82 40 -92 1 -3 -11 -14
-20 -24 -20 -22 0 -23 1 -8 34 22 47 89 60 133 25z m213 -5 c21 -21 24 -32 20
-62 -5 -29 -20 -49 -69 -94 l-63 -57 68 -1 c53 0 67 -3 67 -15 0 -12 -17 -15
-90 -15 -57 0 -90 4 -90 11 0 5 34 46 75 89 41 43 75 85 75 94 0 46 -76 61
-95 19 -5 -13 -18 -23 -27 -23 -21 0 -21 1 -8 35 19 49 96 60 137 19z m-2767
-507 c8 -6 20 -23 26 -37 38 -86 76 -177 79 -191 2 -9 12 -36 23 -60 11 -24
48 -114 82 -199 34 -85 70 -173 80 -195 10 -22 46 -110 80 -195 34 -85 70
-173 80 -195 10 -22 29 -71 43 -110 13 -38 34 -90 45 -115 11 -25 46 -108 77
-185 30 -77 60 -148 66 -158 5 -10 21 -50 36 -90 14 -40 33 -90 43 -112 26
-61 36 -86 115 -280 41 -99 81 -198 91 -220 10 -22 18 -42 19 -45 3 -8 16 -43
30 -75 6 -16 25 -61 40 -100 15 -38 36 -88 46 -110 9 -22 23 -57 31 -78 12
-35 11 -40 -7 -53 -22 -16 -188 -20 -228 -5 -19 7 -35 39 -87 178 -34 92 -69
182 -76 198 -19 45 -110 283 -128 338 -26 79 -68 172 -80 179 -6 4 -313 8
-683 8 l-672 0 -21 -57 c-43 -112 -82 -219 -100 -273 -102 -301 -198 -554
-217 -568 -13 -10 -45 -13 -115 -10 -53 2 -100 7 -103 10 -8 8 85 271 160 453
16 39 34 87 160 415 58 151 123 320 145 375 21 55 42 113 45 128 4 15 11 30
16 33 5 3 9 12 9 20 0 8 9 34 19 58 11 23 54 134 96 247 42 112 85 224 95 249
10 25 32 83 50 130 17 47 35 94 40 105 6 11 37 92 71 180 33 88 67 176 75 195
7 19 29 75 48 125 27 71 39 91 57 96 48 12 283 9 299 -4z m2440 -745 c46 -12
142 -52 158 -67 11 -10 6 -32 -28 -120 -22 -59 -45 -114 -50 -120 -8 -10 -31
-7 -103 12 -124 33 -220 28 -310 -15 -82 -40 -122 -75 -168 -145 -48 -73 -73
-151 -99 -297 -18 -105 -20 -163 -20 -723 l-1 -608 -28 -12 c-18 -8 -65 -10
-137 -7 l-109 5 -2 1033 c-2 673 1 1032 7 1032 6 1 53 1 105 1 52 0 102 0 110
-1 12 0 15 -32 17 -207 2 -126 7 -208 13 -209 6 -2 27 30 47 70 85 171 206
320 292 361 70 33 210 41 306 17z m-3644 -2482 c30 -74 66 -160 79 -191 31
-71 31 -79 -3 -79 -24 0 -30 7 -50 60 l-24 60 -87 0 -87 0 -20 -57 c-16 -50
-23 -58 -47 -61 -15 -2 -27 1 -27 6 0 5 22 65 48 133 27 68 61 157 77 197 26
70 28 73 57 70 28 -3 32 -10 84 -138z m2793 123 c-34 -45 -54 -63 -71 -63 -22
0 -22 1 -1 45 14 30 22 35 51 35 31 0 33 -2 21 -17z m-1949 -115 l0 -21 24 22
c21 19 31 22 61 17 27 -5 35 -11 31 -22 -3 -9 -6 -20 -6 -25 0 -4 -12 -6 -27
-3 -17 3 -36 -1 -48 -10 -17 -12 -20 -28 -23 -125 -4 -110 -4 -111 -28 -111
l-24 0 0 150 c0 143 1 150 20 150 14 0 20 -7 20 -22z m970 8 c21 -12 26 -12
36 2 6 9 18 13 28 9 14 -6 16 -27 16 -162 0 -172 -8 -209 -55 -239 -41 -27
-150 -19 -176 13 -11 13 -19 32 -19 42 0 28 35 24 54 -6 13 -20 25 -25 61 -25
35 0 47 5 64 26 12 15 21 40 21 56 0 28 -1 29 -22 14 -27 -19 -87 -21 -123 -4
-57 26 -85 150 -50 219 31 59 109 85 165 55z m1007 -8 c42 -25 63 -71 63 -135
-1 -98 -62 -158 -151 -150 -59 5 -94 31 -115 85 -19 48 -14 129 10 164 42 59
129 76 193 36z m820 2 c5 -20 5 -20 30 0 48 38 137 18 161 -35 7 -15 12 -72
12 -134 0 -107 0 -109 -24 -113 l-24 -5 -4 113 c-2 93 -6 115 -22 133 -25 28
-58 27 -93 -3 -27 -23 -28 -28 -30 -123 -1 -54 -2 -102 -2 -106 -1 -5 -11 -7
-23 -5 -22 3 -23 7 -26 137 -2 74 -1 140 2 148 8 20 37 16 43 -7z"/>
<path d="M5174 5299 c-15 -17 -19 -36 -19 -94 0 -82 14 -108 54 -103 33 4 51
39 51 99 0 49 -17 109 -30 109 -5 0 -15 2 -22 5 -8 3 -23 -4 -34 -16z"/>
<path d="M2277 4058 c-114 -292 -464 -1244 -461 -1250 7 -12 1064 -10 1064 1
0 10 -136 363 -170 441 -11 25 -58 144 -105 265 -244 623 -249 635 -271 635
-17 0 -27 -17 -57 -92z"/>
<path d="M1177 1255 c-16 -47 -26 -88 -23 -93 3 -5 15 -8 28 -6 13 1 39 3 59
3 l37 1 -32 90 c-17 49 -33 90 -36 90 -3 0 -18 -39 -33 -85z"/>
<path d="M3019 1237 c-27 -21 -39 -54 -39 -107 0 -61 30 -100 78 -100 52 0 75
29 80 98 4 58 3 63 -26 92 -32 31 -66 38 -93 17z"/>
<path d="M3986 1227 c-50 -50 -41 -164 15 -193 35 -18 79 -12 103 15 25 28 32
111 12 149 -29 56 -89 69 -130 29z"/>
</g>
</svg>
